<svg id="Layer_1" data-name="Layer 1" xmlns="http://www.w3.org/2000/svg" viewBox="0 0 600 266.62"><defs><style>.cls-1{fill:#195087;}.cls-2{fill:#422330;}.cls-3{fill:none;}.cls-4{fill:#fff;}</style></defs><path class="cls-1" d="M173.37,69.05a114.41,114.41,0,0,0-96.71,84.7L62.06,209.8H179.28a34,34,0,1,1,51.33-40.51l42-112.46Zm52.49,64.26H107.08a85.61,85.61,0,0,1,66.79-48.09l74.27-9.15Zm-26.68,21.94a27,27,0,1,0,19.69,45.46l7.28-19.48A27,27,0,0,0,199.18,155.25Z"/><path class="cls-1" d="M314.91,177.05,358.67,56.83h102c31.79,0,18.33,37,18.33,37-3.72,10.22-8.62,17.62-14.08,23.13,1.51,5.35,1.08,12.59-2.58,22.66,0,0-13.64,37.45-44.79,37.45Zm125.18-74.59c5,0,8.19-8.65,8.19-8.65s3-8.19-2.06-8.19H376.83L354,148.25h69.39c5,0,8.19-8.65,8.19-8.65s3-8.34-2-8.34H402.39l-11.23-28.8Z"/><polygon class="cls-1" points="317.68 148.25 275.24 148.25 308.52 56.83 279.88 56.83 236.12 177.05 307.19 177.05 317.68 148.25"/><polygon class="cls-1" points="537.94 148.25 495.5 148.25 528.78 56.83 500.14 56.83 456.38 177.05 527.46 177.05 537.94 148.25"/><path class="cls-2" d="M238.76,188.16h-5.58v-3.55h16.51v3.55H244.1v21.28h-5.34Z"/><path class="cls-2" d="M252.25,184.61h7.92c5.53,0,7.91,1.88,7.91,5.71v1.52c0,2.56-1.12,4.19-3.5,4.9v.07c2.67.61,3.55,2.45,3.55,5.25v4.37a5.56,5.56,0,0,0,.58,3h-5.44a5.81,5.81,0,0,1-.48-3.05v-4.54c0-2.31-.92-3-3.35-3h-1.85v10.64h-5.34Zm7.29,10.64c2,0,3.2-.64,3.2-2.62v-1.92c0-1.78-.82-2.55-2.72-2.55h-2.43v7.09Z"/><path class="cls-2" d="M271.62,203.55V184.61H277v19.23c0,1.77,1,2.41,2.72,2.41s2.72-.64,2.72-2.41V184.61h5.14v18.94c0,4-2.72,6.25-8,6.25S271.62,207.53,271.62,203.55Z"/><path class="cls-2" d="M291,203.7V190.35c0-3.83,2.72-6.1,7.87-6.1s7.86,2.27,7.86,6.1V193h-5v-2.87c0-1.64-1.07-2.31-2.67-2.31s-2.67.67-2.67,2.31V204c0,1.63,1.07,2.27,2.67,2.27s2.67-.64,2.67-2.27v-3.8h5v3.52c0,3.83-2.72,6.1-7.86,6.1S291,207.53,291,203.7Z"/><path class="cls-2" d="M309.91,184.61h5.34v10.46l6.8-10.46h5.34L321,193.73l6.45,15.71H321.9l-4.51-11.07-2.14,3.16v7.91h-5.34Z"/><path class="cls-2" d="M330,184.61h5.34v24.83H330Z"/><path class="cls-2" d="M339.32,184.61H346l5.19,14.86h.1V184.61h4.76v24.83h-5.49l-6.41-18.13h-.09v18.13h-4.76Z"/><path class="cls-2" d="M359.65,203.55V190.5c0-4,2.72-6.25,8-6.25s8,2.27,8,6.25v2.13h-5.05v-2.38c0-1.78-1.07-2.45-2.77-2.45s-2.77.67-2.77,2.45v13.59c0,1.77,1.07,2.41,2.77,2.41s2.77-.64,2.77-2.41V199h-2.67v-3.55h7.72v8.12c0,4-2.72,6.25-8,6.25S359.65,207.53,359.65,203.55Z"/><path class="cls-2" d="M386.44,203.7V190.35c0-3.83,2.72-6.1,7.87-6.1s7.86,2.27,7.86,6.1V193h-5.05v-2.87c0-1.64-1.07-2.31-2.67-2.31s-2.67.67-2.67,2.31V204c0,1.63,1.07,2.27,2.67,2.27s2.67-.64,2.67-2.27v-3.8h5.05v3.52c0,3.83-2.72,6.1-7.86,6.1S386.44,207.53,386.44,203.7Z"/><path class="cls-2" d="M405.08,203.55V190.5c0-4,2.86-6.25,8.1-6.25s8.11,2.27,8.11,6.25v13.05c0,4-2.86,6.25-8.11,6.25S405.08,207.53,405.08,203.55Zm10.87.25V190.25c0-1.78-1.06-2.45-2.77-2.45s-2.76.67-2.76,2.45V203.8c0,1.77,1.06,2.45,2.76,2.45S416,205.57,416,203.8Z"/><path class="cls-2" d="M424.88,184.61h7.62l3.4,17.77H436l3.4-17.77H447v24.83h-5v-18.8h-.1L438,209.44h-4.46l-3.89-18.8h-.09v18.8h-4.66Z"/><path class="cls-2" d="M451,184.61h7.86c5.34,0,8,2.16,8,6.13v2.45c0,4-2.62,6.14-8,6.14h-2.52v10.11H451Zm7.86,11.17c1.7,0,2.62-.57,2.62-2.34V190.5c0-1.78-.92-2.34-2.62-2.34h-2.52v7.62Z"/><path class="cls-2" d="M472.15,184.61h7.23l5.54,24.83h-5.34l-1-4.93v.07h-6.06l-1,4.86h-5Zm5.82,16.6-2.37-12.28h-.1l-2.33,12.28Z"/><path class="cls-2" d="M487.48,184.61h6.7l5.2,14.86h.09V184.61h4.76v24.83h-5.48l-6.41-18.13h-.1v18.13h-4.76Z"/><path class="cls-2" d="M513.11,198.87l-6.46-14.26h5.68l3.65,9.12h.09l3.64-9.12h5.2l-6.46,14.26v10.57h-5.34Z"/><path class="cls-3" d="M218.87,200.71a27,27,0,1,1,7.28-19.48q0,.51,0,1A26.85,26.85,0,0,1,218.87,200.71Z"/><path class="cls-4" d="M226.18,182.25a27.29,27.29,0,1,1,0-1Q226.18,181.74,226.18,182.25Z"/><path class="cls-1" d="M226.18,182.25a27.29,27.29,0,1,1,0-1Q226.18,181.74,226.18,182.25Z"/></svg>